<?xml version="1.0" encoding="iso-8859-1"?>
<!-- Uploaded to: SVG Repo, www.svgrepo.com, Generator: SVG Repo Mixer Tools -->
<svg height="800px" width="800px" version="1.1" id="Layer_1" xmlns="http://www.w3.org/2000/svg" xmlns:xlink="http://www.w3.org/1999/xlink" 
	 viewBox="0 0 512.001 512.001" xml:space="preserve">
<path style="fill:#6FC8F1;" d="M464.024,192.041c0.155-1.944,0.232-3.892,0.232-5.838c0-40.742-33.148-73.89-73.89-73.89
	c-3.653,0-7.287,0.267-10.875,0.798c-15.517-35.149-50.195-58.092-89.387-58.092c-53.907,0-97.762,43.856-97.762,97.762
	c0,2.96,0.134,5.919,0.4,8.863c-16.602,3.256-31.822,11.491-43.798,23.875c-15.117,15.634-23.444,36.224-23.444,57.977
	c0,46.008,37.431,83.439,83.439,83.439h233.947c38.111,0,69.116-31.005,69.116-69.115C512,227.542,492.064,201.097,464.024,192.041z
	"/>
<path style="fill:#4BBAED;" d="M464.024,192.041c0.155-1.944,0.232-3.892,0.232-5.838c0-40.742-33.148-73.89-73.89-73.89
	c-3.653,0-7.287,0.267-10.875,0.798c-15.517-35.149-50.195-58.092-89.387-58.092c-12.164,0-23.806,2.251-34.558,6.329v265.586
	h187.339c38.111,0,69.116-31.005,69.116-69.115C512,227.542,492.064,201.097,464.024,192.041z"/>
<path style="fill:#B7E4F8;" d="M388.905,303.702c0.264-2.704,0.396-5.417,0.396-8.129c0-46.233-37.613-83.845-83.845-83.845
	c-4.633,0-9.238,0.378-13.777,1.131c-17.411-40.857-57.359-67.613-102.569-67.613c-61.507,0-111.547,50.039-111.547,111.546
	c0,3.955,0.209,7.906,0.624,11.829c-19.544,3.466-37.488,12.97-51.517,27.478C9.472,313.884,0,337.307,0,362.055
	c0,52.342,42.584,94.925,94.925,94.925h271.471c43.178,0,78.306-35.128,78.306-78.306
	C444.703,343.857,421.428,313.511,388.905,303.702z"/>
<path style="fill:#93D6F4;" d="M388.905,303.702c0.264-2.704,0.396-5.417,0.396-8.129c0-46.233-37.613-83.845-83.845-83.845
	c-4.633,0-9.238,0.378-13.777,1.131c-7.92-18.585-20.514-34.238-36.134-45.796v289.919h110.853
	c43.178,0,78.306-35.128,78.306-78.306C444.703,343.857,421.428,313.511,388.905,303.702z"/>
</svg>