<!DOCTYPE svg PUBLIC "-//W3C//DTD SVG 1.1//EN" "http://www.w3.org/Graphics/SVG/1.1/DTD/svg11.dtd">
<!-- Uploaded to: SVG Repo, www.svgrepo.com, Transformed by: SVG Repo Mixer Tools -->
<svg height="256px" width="256px" version="1.1" id="Layer_1" xmlns="http://www.w3.org/2000/svg" xmlns:xlink="http://www.w3.org/1999/xlink" viewBox="0 0 512 512" xml:space="preserve" fill="#000000">
<g id="SVGRepo_bgCarrier" stroke-width="0"/>
<g id="SVGRepo_tracerCarrier" stroke-linecap="round" stroke-linejoin="round"/>
<g id="SVGRepo_iconCarrier"> <path style="fill:#1a94ff;" d="M262.182,171.235c2.987-14.152,14.931-20.349,28.756-24.173 c5.199-30.742,31.934-54.162,64.155-54.162c26.133,0,48.656,15.409,59.013,37.631c3.463-0.815,7.07-1.26,10.781-1.26 c21.626,0,39.823,14.643,45.245,34.551c3.468-1.358,7.238-2.113,11.187-2.113c16.944,0,30.681,13.736,30.681,30.681 s-13.736,30.681-30.681,30.681h-261.8L262.182,171.235z"/> <path style="fill:#8EC1ED;" d="M247.544,223.646c15.6,0,28.248-12.647,28.248-28.248s-12.647-28.248-28.248-28.248 c-4.702,0-9.132,1.156-13.033,3.188c-3.882-7.688-10.378-13.828-18.327-17.246c0-0.07,0.005-0.14,0.005-0.21 c0-39.081-31.682-70.763-70.763-70.763c-32.364,0-59.634,21.736-68.058,51.4c-18.633,3.269-33.348,17.89-36.756,36.476 c-3.735-1.821-7.93-2.847-12.366-2.847C12.647,167.151,0,179.798,0,195.399s12.647,28.248,28.248,28.248L247.544,223.646 L247.544,223.646z"/> <g> <path style="fill:#C6C3CB;" d="M39.718,301.417c-3.113,0-6.061-1.858-7.301-4.921l-13.605-33.6 c-1.632-4.03,0.312-8.621,4.343-10.254c4.029-1.631,8.621,0.312,10.254,4.343l13.605,33.6c1.632,4.03-0.312,8.621-4.343,10.254 C41.702,301.231,40.703,301.417,39.718,301.417z"/> <path style="fill:#C6C3CB;" d="M103.792,301.417c-3.113,0-6.061-1.858-7.301-4.921l-13.605-33.6 c-1.632-4.03,0.312-8.621,4.343-10.254c4.029-1.631,8.62,0.312,10.254,4.343l13.605,33.6c1.632,4.03-0.312,8.621-4.343,10.254 C105.776,301.231,104.776,301.417,103.792,301.417z"/> <path style="fill:#C6C3CB;" d="M167.865,301.417c-3.113,0-6.061-1.858-7.3-4.921l-13.605-33.6 c-1.632-4.03,0.312-8.621,4.343-10.254c4.03-1.631,8.62,0.312,10.254,4.343l13.605,33.6c1.632,4.03-0.312,8.621-4.343,10.254 C169.851,301.231,168.85,301.417,167.865,301.417z"/> <path style="fill:#C6C3CB;" d="M231.94,301.417c-3.113,0-6.061-1.858-7.301-4.921l-13.605-33.6 c-1.632-4.03,0.312-8.621,4.343-10.254c4.03-1.631,8.621,0.312,10.254,4.343l13.605,33.6c1.632,4.03-0.312,8.621-4.343,10.254 C233.924,301.231,232.924,301.417,231.94,301.417z"/> <path style="fill:#C6C3CB;" d="M296.014,301.417c-3.113,0-6.061-1.858-7.301-4.921l-13.605-33.6 c-1.632-4.03,0.312-8.621,4.343-10.254c4.03-1.631,8.621,0.312,10.254,4.343l13.605,33.6c1.632,4.03-0.312,8.621-4.343,10.254 C297.998,301.231,296.997,301.417,296.014,301.417z"/> <path style="fill:#C6C3CB;" d="M360.088,301.417c-3.113,0-6.061-1.858-7.301-4.921l-13.605-33.6 c-1.632-4.03,0.312-8.621,4.343-10.254c4.029-1.631,8.62,0.312,10.254,4.343l13.605,33.6c1.632,4.03-0.312,8.621-4.343,10.254 C362.072,301.231,361.071,301.417,360.088,301.417z"/> <path style="fill:#C6C3CB;" d="M424.161,301.417c-3.113,0-6.061-1.858-7.301-4.921l-13.605-33.6 c-1.632-4.03,0.312-8.621,4.343-10.254c4.03-1.631,8.62,0.312,10.254,4.343l13.605,33.6c1.632,4.03-0.312,8.621-4.343,10.254 C426.145,301.231,425.145,301.417,424.161,301.417z"/> <path style="fill:#C6C3CB;" d="M488.235,301.417c-3.113,0-6.061-1.858-7.301-4.921l-13.605-33.6 c-1.632-4.03,0.312-8.621,4.343-10.254c4.03-1.631,8.62,0.312,10.254,4.343l13.605,33.6c1.632,4.03-0.312,8.621-4.343,10.254 C490.219,301.231,489.219,301.417,488.235,301.417z"/> <path style="fill:#C6C3CB;" d="M92.21,363.841c-3.113,0-6.061-1.858-7.301-4.921l-13.605-33.6 c-1.632-4.03,0.312-8.621,4.343-10.254c4.03-1.631,8.621,0.312,10.254,4.343l13.605,33.6c1.632,4.03-0.312,8.621-4.343,10.254 C94.194,363.656,93.194,363.841,92.21,363.841z"/> <path style="fill:#C6C3CB;" d="M156.284,363.841c-3.113,0-6.061-1.858-7.3-4.921l-13.605-33.6 c-1.632-4.03,0.312-8.621,4.343-10.254c4.03-1.631,8.621,0.312,10.254,4.343l13.605,33.6c1.632,4.03-0.312,8.621-4.343,10.254 C158.268,363.656,157.267,363.841,156.284,363.841z"/> <path style="fill:#C6C3CB;" d="M220.357,363.841c-3.113,0-6.061-1.858-7.3-4.921l-13.605-33.6 c-1.632-4.03,0.312-8.621,4.343-10.254c4.031-1.631,8.621,0.312,10.254,4.343l13.605,33.6c1.632,4.03-0.312,8.621-4.343,10.254 C222.342,363.656,221.341,363.841,220.357,363.841z"/> <path style="fill:#C6C3CB;" d="M284.431,363.841c-3.113,0-6.061-1.858-7.301-4.921l-13.605-33.6 c-1.632-4.03,0.312-8.621,4.343-10.254c4.029-1.631,8.621,0.312,10.254,4.343l13.605,33.6c1.632,4.03-0.312,8.621-4.343,10.254 C286.415,363.656,285.416,363.841,284.431,363.841z"/> <path style="fill:#C6C3CB;" d="M348.505,363.841c-3.113,0-6.061-1.858-7.301-4.921l-13.605-33.6 c-1.632-4.03,0.312-8.621,4.343-10.254c4.029-1.631,8.62,0.312,10.254,4.343l13.605,33.6c1.632,4.03-0.312,8.621-4.343,10.254 C350.489,363.656,349.489,363.841,348.505,363.841z"/> <path style="fill:#C6C3CB;" d="M412.579,363.841c-3.113,0-6.061-1.858-7.301-4.921l-13.605-33.6 c-1.632-4.03,0.312-8.621,4.343-10.254c4.03-1.631,8.621,0.312,10.254,4.343l13.605,33.6c1.632,4.03-0.312,8.621-4.343,10.254 C414.563,363.656,413.563,363.841,412.579,363.841z"/> <path style="fill:#C6C3CB;" d="M476.652,363.841c-3.113,0-6.061-1.858-7.301-4.921l-13.605-33.6 c-1.632-4.03,0.312-8.621,4.343-10.254c4.03-1.631,8.621,0.312,10.254,4.343l13.605,33.6c1.632,4.03-0.312,8.621-4.343,10.254 C478.636,363.656,477.636,363.841,476.652,363.841z"/> <path style="fill:#C6C3CB;" d="M144.701,429.879c-3.113,0-6.061-1.858-7.301-4.921l-13.605-33.6 c-1.632-4.03,0.312-8.621,4.343-10.254c4.031-1.632,8.621,0.312,10.254,4.343l13.605,33.6c1.632,4.03-0.312,8.621-4.343,10.254 C146.685,429.694,145.686,429.879,144.701,429.879z"/> <path style="fill:#C6C3CB;" d="M208.775,429.879c-3.113,0-6.061-1.858-7.3-4.921l-13.605-33.6 c-1.632-4.03,0.312-8.621,4.343-10.254c4.029-1.632,8.621,0.312,10.254,4.343l13.605,33.6c1.632,4.03-0.312,8.621-4.343,10.254 C210.759,429.694,209.759,429.879,208.775,429.879z"/> <path style="fill:#C6C3CB;" d="M272.848,429.879c-3.113,0-6.061-1.858-7.301-4.921l-13.605-33.6 c-1.632-4.03,0.312-8.621,4.343-10.254c4.029-1.632,8.62,0.312,10.254,4.343l13.605,33.6c1.632,4.03-0.312,8.621-4.343,10.254 C274.833,429.694,273.833,429.879,272.848,429.879z"/> <path style="fill:#C6C3CB;" d="M336.922,429.879c-3.113,0-6.061-1.858-7.301-4.921l-13.605-33.6 c-1.632-4.03,0.312-8.621,4.343-10.254c4.03-1.632,8.621,0.312,10.254,4.343l13.605,33.6c1.632,4.03-0.312,8.621-4.343,10.254 C338.906,429.694,337.907,429.879,336.922,429.879z"/> <path style="fill:#C6C3CB;" d="M400.996,429.879c-3.113,0-6.061-1.858-7.301-4.921l-13.605-33.6 c-1.632-4.03,0.312-8.621,4.343-10.254c4.03-1.632,8.621,0.312,10.254,4.343l13.605,33.6c1.632,4.03-0.312,8.621-4.343,10.254 C402.981,429.694,401.98,429.879,400.996,429.879z"/> <path style="fill:#C6C3CB;" d="M465.071,429.879c-3.113,0-6.061-1.858-7.301-4.921l-13.605-33.6 c-1.632-4.03,0.312-8.621,4.343-10.254c4.029-1.632,8.621,0.312,10.254,4.343l13.605,33.6c1.632,4.03-0.312,8.621-4.343,10.254 C467.055,429.694,466.054,429.879,465.071,429.879z"/> </g> </g>
</svg>