<!DOCTYPE svg PUBLIC "-//W3C//DTD SVG 1.1//EN" "http://www.w3.org/Graphics/SVG/1.1/DTD/svg11.dtd">
<!-- Uploaded to: SVG Repo, www.svgrepo.com, Transformed by: SVG Repo Mixer Tools -->
<svg height="256px" width="256px" version="1.1" id="Layer_1" xmlns="http://www.w3.org/2000/svg" xmlns:xlink="http://www.w3.org/1999/xlink" viewBox="0 0 512 512" xml:space="preserve" fill="#000000">
<g id="SVGRepo_bgCarrier" stroke-width="0"/>
<g id="SVGRepo_tracerCarrier" stroke-linecap="round" stroke-linejoin="round"/>
<g id="SVGRepo_iconCarrier"> <g> <path style="fill:#5CE6E6;" d="M77.913,411.826c-9.217,0-16.696-7.473-16.696-16.696v-33.391c0-9.223,7.479-16.696,16.696-16.696 s16.696,7.473,16.696,16.696v33.391C94.609,404.353,87.13,411.826,77.913,411.826z"/> <path style="fill:#5CE6E6;" d="M77.913,512c-9.217,0-16.696-7.473-16.696-16.696v-33.391c0-9.223,7.479-16.696,16.696-16.696 s16.696,7.473,16.696,16.696v33.391C94.609,504.527,87.13,512,77.913,512z"/> <path style="fill:#5CE6E6;" d="M144.696,411.826c-9.217,0-16.696-7.473-16.696-16.696v-33.391c0-9.223,7.479-16.696,16.696-16.696 s16.696,7.473,16.696,16.696v33.391C161.391,404.353,153.913,411.826,144.696,411.826z"/> <path style="fill:#5CE6E6;" d="M144.696,512c-9.217,0-16.696-7.473-16.696-16.696v-33.391c0-9.223,7.479-16.696,16.696-16.696 s16.696,7.473,16.696,16.696v33.391C161.391,504.527,153.913,512,144.696,512z"/> </g> <g> <path style="fill:#51CCCC;" d="M356.174,411.826c-9.217,0-16.696-7.473-16.696-16.696v-33.391c0-9.223,7.479-16.696,16.696-16.696 c9.217,0,16.696,7.473,16.696,16.696v33.391C372.87,404.353,365.391,411.826,356.174,411.826z"/> <path style="fill:#51CCCC;" d="M356.174,512c-9.217,0-16.696-7.473-16.696-16.696v-33.391c0-9.223,7.479-16.696,16.696-16.696 c9.217,0,16.696,7.473,16.696,16.696v33.391C372.87,504.527,365.391,512,356.174,512z"/> <path style="fill:#51CCCC;" d="M422.957,411.826c-9.217,0-16.696-7.473-16.696-16.696v-33.391c0-9.223,7.479-16.696,16.696-16.696 c9.217,0,16.696,7.473,16.696,16.696v33.391C439.652,404.353,432.174,411.826,422.957,411.826z"/> <path style="fill:#51CCCC;" d="M422.957,512c-9.217,0-16.696-7.473-16.696-16.696v-33.391c0-9.223,7.479-16.696,16.696-16.696 c9.217,0,16.696,7.473,16.696,16.696v33.391C439.652,504.527,432.174,512,422.957,512z"/> </g> <path style="fill:#FFD15D;" d="M302.314,439.096L256,495.705l-3.773,4.608c-3.306,4.04-8.092,6.122-12.934,6.122 c-3.718,0-7.457-1.235-10.563-3.773c-7.135-5.843-8.192-16.362-2.349-23.496l27.782-33.948h-42.685 c-6.445,0-12.321-3.718-15.082-9.539c-2.771-5.832-1.926-12.733,2.159-17.731l50.087-61.217c2.015-2.449,4.575-4.185,7.357-5.165 c5.098-1.814,10.941-1.091,15.549,2.349c0.2,0.156,0.401,0.312,0.59,0.467c7.135,5.844,8.192,16.362,2.349,23.496L256,400.473 l-9.294,11.353h42.685c6.445,0,12.321,3.718,15.082,9.539C307.245,427.197,306.399,434.098,302.314,439.096z"/> <path style="fill:#D7EBFF;" d="M439.554,135.277c0.013-0.587,0.098-1.119,0.098-1.712C439.652,59.918,379.739,0,306.087,0 c-36.24,0-70.331,14.831-95.506,40.996c-11.894-4.9-24.772-7.604-38.059-7.604c-55.239,0-100.174,44.94-100.174,100.174 c0,0.557,0.075,1.113,0.085,1.67c-38.099,7.723-66.867,41.463-66.867,81.809c0,46.032,37.446,83.478,83.478,83.478h333.913 c46.032,0,83.478-37.446,83.478-83.478C506.435,176.759,477.739,143.066,439.554,135.277z"/> <g> <path style="fill:#F9B54C;" d="M274.488,377.878L256,400.473v-48.907c5.098-1.814,10.941-1.091,15.549,2.349 c0.2,0.156,0.401,0.312,0.59,0.467C279.274,360.225,280.331,370.744,274.488,377.878z"/> <path style="fill:#F9B54C;" d="M302.314,439.096L256,495.705v-83.879h33.391c6.445,0,12.321,3.718,15.082,9.539 C307.245,427.197,306.399,434.098,302.314,439.096z"/> </g> <path style="fill:#BDDEFF;" d="M439.554,135.277c0.013-0.587,0.098-1.119,0.098-1.712C439.652,59.918,379.739,0,306.087,0 C288.63,0,271.704,3.519,256,10.011v290.511h166.957c46.032,0,83.478-37.446,83.478-83.478 C506.435,176.759,477.739,143.066,439.554,135.277z"/> </g>
</svg>